/* XPM */
static char *c36074dca52f4637ac03b4c365fbcb57BqZnW7zeQcsVT4Fm[] = {
/* columns rows colors chars-per-pixel */
"32 32 63 1 ",
"  c black",
". c black",
"X c #211D1D",
"o c #6F5756",
"O c #FCA89D",
"+ c #D41900",
"@ c #FE8270",
"# c #A15C52",
"$ c #812611",
"% c #FB9B72",
"& c #E17B50",
"* c #FF4D00",
"= c #A84111",
"- c #8C6A56",
"; c #453625",
": c #874A00",
"> c #BAA368",
", c #FAE898",
"< c #FAFA82",
"1 c #D3D9B2",
"2 c #999F8E",
"3 c #82A368",
"4 c #00FF8C",
"5 c #07BB79",
"6 c #323C39",
"7 c #14605D",
"8 c #696A6A",
"9 c #00EDFF",
"0 c #DEF9FC",
"q c #748F93",
"w c #17394A",
"e c #3494CB",
"r c #3B6983",
"t c #0C1317",
"y c #1F324D",
"u c #12274D",
"i c #A5B5D4",
"p c #0F1833",
"a c #4C63E0",
"s c #CDD1EC",
"d c #42428F",
"f c #31314B",
"g c #1E1B80",
"h c #2F1D5A",
"j c #5A5875",
"k c #222034",
"l c #76428A",
"z c #B598B2",
"x c #8D768A",
"c c #D77BBA",
"v c #8F4975",
"b c #472138",
"n c #EF3E6D",
"m c #70162B",
"M c #D95763",
"N c #8294AF",
"B c #5C855B",
"V c #244B3A",
"C c #111F12",
"Z c #1B0B0B",
"A c #10162E",
"S c #1A130F",
"D c #1C1429",
/* pixels */
"yyyyyyjjjjjjjjyyyyjNNNNNNNjjjyyy",
"yjjjjNNNNNNNjjjjjjNNNNNNNNNNjjjy",
"yjjjNNNNNNNNNjjjjNNNNNNNNNNNjNNj",
"jjjNNNNNNNNNNNjjNNNNNNNNNNNNyNNN",
"jNjNNNNNNNNNNNNNjNNNNNNNNNNNyNNN",
"NNNNNNNNNNNNNNNNjNNNNNNNNNNjNNNN",
"NNNNNNNNNNNNNNNNNNNNNNNNNNjjNNNN",
"NNjNNNNNNNNNNNNNNNNNNNNNNjjjNNNN",
"NNjNNNNNNNNNNNNNjjNNNNNNjNNNyNNj",
"jNjjNNNNNNNNNNNjjjjNNNNyNNNNNyjj",
"jjjyjNNNNNNNNNjNNNNNjjjNNNNNNNjy",
"jjNjyjNNNNNNNjNNNNNNNjNNNNNNNNNy",
"jNNNjyyyyjjjjNNNNNNNNNNNNNNNNNNy",
"jNNNNjjjjjjNNNNNNNNNNNNNNNNNNNNN",
"yNNNNNjjjjNNNNNNNNNNNNjNNNNNNNNN",
"yNNNNNjNjjNNNNNNNNNNNjyjNNNNNNNN",
"yjNNNjNNNNjNNNNNNNNNjNNjjjjNNNNj",
"yjjjjNNNNNNjNNNNNjNNNNNNjjjjNNjy",
"yjjjNNNNNNNNNNNNjNNNNNNNNNNjjjjy",
"yjjNNNNNNNNNNjjyNNNNNNNNNNNNyjNj",
"jjNNNNNNNNNNNNNyNNNNNNNNNNNNyNNN",
"jNNNNNNNNNNNNNNyNNNNNNNNNNNjNNNN",
"jNNNNNNNNNNNNNNjNNNNNNNNNNyjNNNj",
"jjNNNNNNNNNNNNNjjNNNNNNNNyjjNNNj",
"yjNNNNNNNNNNNNNjjjNNNNNNyNNNyNNj",
"yjjjNNNNNNNNNNNjjjjNNNNyNNNNNyjy",
"yjjyjNNNNNNNNNNyNNNNjjjNNNNNNNjy",
"jNNjyjNNNNNNNNyNNNNNNjNNNNNNNNNy",
"jNNNjyjjNNNNjyNNNNNNNNNNNNNNNNNj",
"jNNNNNjNNNNNNjNNNNNNNNNNNNNNNNNj",
"yNNNNNjNNNNNNNjNNNNNNNjNNNNNNNNj",
"yjNNNjjjNNNNNjjjNNNNNjyjNNNNNNjj"
};
